<svg xmlns="http://www.w3.org/2000/svg" xmlns:xlink="http://www.w3.org/1999/xlink" viewBox="0 0 700 346.4" width="700" height="346.4"><path d="M 92.000,131.200 C 94.150,127.407 94.400,127.600 96.800,124.000" stroke-width="4.774" stroke="black" fill="none" stroke-linecap="round"></path><path d="M 96.800,124.000 C 99.721,120.114 99.750,120.207 103.200,116.800" stroke-width="3.939" stroke="black" fill="none" stroke-linecap="round"></path><path d="M 103.200,116.800 C 108.353,112.343 108.121,112.114 113.600,108.000" stroke-width="3.330" stroke="black" fill="none" stroke-linecap="round"></path><path d="M 113.600,108.000 C 119.597,102.232 119.953,102.743 126.400,97.600" stroke-width="2.983" stroke="black" fill="none" stroke-linecap="round"></path><path d="M 126.400,97.600 C 138.086,88.508 138.397,89.431 151.200,82.400" stroke-width="2.283" stroke="black" fill="none" stroke-linecap="round"></path><path d="M 151.200,82.400 C 167.557,74.445 167.286,74.908 184.800,70.400" stroke-width="1.934" stroke="black" fill="none" stroke-linecap="round"></path><path d="M 184.800,70.400 C 200.398,67.200 199.957,66.845 216.000,67.200" stroke-width="1.964" stroke="black" fill="none" stroke-linecap="round"></path><path d="M 216.000,67.200 C 233.029,65.695 231.998,67.200 248.000,70.400" stroke-width="1.951" stroke="black" fill="none" stroke-linecap="round"></path><path d="M 248.000,70.400 C 262.111,75.691 261.029,74.495 272.000,84.800" stroke-width="2.070" stroke="black" fill="none" stroke-linecap="round"></path><path d="M 272.000,84.800 C 276.985,91.169 277.311,89.691 278.400,98.400" stroke-width="2.636" stroke="black" fill="none" stroke-linecap="round"></path><path d="M 278.400,98.400 C 281.795,110.571 280.585,109.569 279.200,121.600" stroke-width="2.388" stroke="black" fill="none" stroke-linecap="round"></path><path d="M 279.200,121.600 C 274.745,138.651 275.395,137.771 265.600,152.800" stroke-width="2.003" stroke="black" fill="none" stroke-linecap="round"></path><path d="M 265.600,152.800 C 252.865,171.716 253.545,171.451 236.800,187.200" stroke-width="1.605" stroke="black" fill="none" stroke-linecap="round"></path><path d="M 236.800,187.200 C 219.205,203.844 219.665,203.716 199.200,216.800" stroke-width="1.557" stroke="black" fill="none" stroke-linecap="round"></path><path d="M 199.200,216.800 C 176.403,230.050 177.205,231.044 152.800,241.600" stroke-width="1.424" stroke="black" fill="none" stroke-linecap="round"></path><path d="M 152.800,241.600 C 138.589,248.129 138.803,248.450 124.000,253.600" stroke-width="1.775" stroke="black" fill="none" stroke-linecap="round"></path><path d="M 124.000,253.600 C 109.301,261.979 116.189,256.529 108.000,258.400" stroke-width="2.405" stroke="black" fill="none" stroke-linecap="round"></path><path d="M 108.000,258.400 C 111.415,246.416 106.101,253.179 117.600,236.000" stroke-width="3.215" stroke="black" fill="none" stroke-linecap="round"></path><path d="M 117.600,236.000 C 126.694,220.488 126.615,220.816 138.400,207.200" stroke-width="2.093" stroke="black" fill="none" stroke-linecap="round"></path><path d="M 138.400,207.200 C 156.580,186.860 156.294,186.888 176.800,168.800" stroke-width="1.503" stroke="black" fill="none" stroke-linecap="round"></path><path d="M 176.800,168.800 C 197.430,149.109 197.780,150.060 220.800,133.600" stroke-width="1.358" stroke="black" fill="none" stroke-linecap="round"></path><path d="M 220.800,133.600 C 241.809,119.329 241.430,119.909 264.800,110.400" stroke-width="1.366" stroke="black" fill="none" stroke-linecap="round"></path><path d="M 264.800,110.400 C 283.828,104.480 283.009,103.329 303.200,101.600" stroke-width="1.581" stroke="black" fill="none" stroke-linecap="round"></path><path d="M 303.200,101.600 C 314.113,99.905 313.428,100.080 324.000,101.600" stroke-width="2.144" stroke="black" fill="none" stroke-linecap="round"></path><path d="M 324.000,101.600 C 330.013,102.708 328.113,102.305 331.200,106.400" stroke-width="3.015" stroke="black" fill="none" stroke-linecap="round"></path><path d="M 331.200,106.400 C 334.062,115.935 333.613,113.908 331.200,124.000" stroke-width="2.835" stroke="black" fill="none" stroke-linecap="round"></path><path d="M 331.200,124.000 C 323.535,140.730 325.262,140.735 313.600,156.000" stroke-width="2.010" stroke="black" fill="none" stroke-linecap="round"></path><path d="M 313.600,156.000 C 301.529,173.796 301.935,173.930 288.000,190.400" stroke-width="1.647" stroke="black" fill="none" stroke-linecap="round"></path><path d="M 288.000,190.400 C 274.703,205.886 275.129,206.196 260.800,220.800" stroke-width="1.652" stroke="black" fill="none" stroke-linecap="round"></path><path d="M 260.800,220.800 C 252.551,229.366 252.703,229.486 244.000,237.600" stroke-width="2.084" stroke="black" fill="none" stroke-linecap="round"></path><path d="M 244.000,237.600 C 239.200,242.271 241.751,239.766 239.200,241.600" stroke-width="3.183" stroke="black" fill="none" stroke-linecap="round"></path><path d="M 239.200,241.600 C 241.381,237.837 239.200,240.671 244.000,234.400" stroke-width="3.497" stroke="black" fill="none" stroke-linecap="round"></path><path d="M 244.000,234.400 C 248.150,229.720 247.782,229.437 252.000,224.800" stroke-width="3.314" stroke="black" fill="none" stroke-linecap="round"></path><path d="M 252.000,224.800 C 261.603,210.520 262.550,211.320 272.800,197.600" stroke-width="2.078" stroke="black" fill="none" stroke-linecap="round"></path><path d="M 272.800,197.600 C 287.808,180.593 287.603,180.520 304.000,164.800" stroke-width="1.666" stroke="black" fill="none" stroke-linecap="round"></path><path d="M 304.000,164.800 C 320.668,149.450 320.208,148.993 337.600,134.400" stroke-width="1.572" stroke="black" fill="none" stroke-linecap="round"></path><path d="M 337.600,134.400 C 345.978,127.174 345.868,127.050 354.400,120.000" stroke-width="2.052" stroke="black" fill="none" stroke-linecap="round"></path><path d="M 354.400,120.000 C 359.623,114.141 356.778,117.974 359.200,116.000" stroke-width="3.132" stroke="black" fill="none" stroke-linecap="round"></path><path d="M 359.200,116.000 C 355.670,127.230 357.623,122.941 350.400,137.600" stroke-width="3.245" stroke="black" fill="none" stroke-linecap="round"></path><path d="M 350.400,137.600 C 342.363,151.179 343.270,151.630 334.400,164.800" stroke-width="2.298" stroke="black" fill="none" stroke-linecap="round"></path><path d="M 334.400,164.800 C 326.938,177.059 327.163,177.179 320.000,189.600" stroke-width="2.151" stroke="black" fill="none" stroke-linecap="round"></path><path d="M 320.000,189.600 C 311.718,201.082 316.538,195.859 313.600,202.400" stroke-width="2.665" stroke="black" fill="none" stroke-linecap="round"></path><path d="M 313.600,202.400 C 321.621,199.939 315.718,203.882 328.000,195.200" stroke-width="3.379" stroke="black" fill="none" stroke-linecap="round"></path><path d="M 328.000,195.200 C 334.482,188.059 335.621,189.539 341.600,181.600" stroke-width="2.756" stroke="black" fill="none" stroke-linecap="round"></path><path d="M 341.600,181.600 C 356.249,168.621 356.082,168.459 371.200,156.000" stroke-width="1.924" stroke="black" fill="none" stroke-linecap="round"></path><path d="M 371.200,156.000 C 387.178,142.773 387.049,142.621 403.200,129.600" stroke-width="1.712" stroke="black" fill="none" stroke-linecap="round"></path><path d="M 403.200,129.600 C 406.857,125.715 405.178,127.973 407.200,126.400" stroke-width="2.966" stroke="black" fill="none" stroke-linecap="round"></path><path d="M 407.200,126.400 C 406.498,129.868 407.657,127.315 404.800,132.800" stroke-width="3.852" stroke="black" fill="none" stroke-linecap="round"></path><path d="M 404.800,132.800 C 401.683,137.262 402.098,137.468 398.400,141.600" stroke-width="3.485" stroke="black" fill="none" stroke-linecap="round"></path><path d="M 398.400,141.600 C 390.156,151.823 390.483,152.062 382.400,162.400" stroke-width="2.484" stroke="black" fill="none" stroke-linecap="round"></path><path d="M 382.400,162.400 C 377.107,169.939 376.956,169.823 372.000,177.600" stroke-width="2.574" stroke="black" fill="none" stroke-linecap="round"></path><path d="M 372.000,177.600 C 365.804,185.204 369.907,180.739 368.000,184.000" stroke-width="3.376" stroke="black" fill="none" stroke-linecap="round"></path><path d="M 368.000,184.000 C 382.616,174.290 378.204,178.404 396.800,164.000" stroke-width="2.894" stroke="black" fill="none" stroke-linecap="round"></path><path d="M 396.800,164.000 C 402.832,159.239 403.016,159.490 408.800,154.400" stroke-width="2.936" stroke="black" fill="none" stroke-linecap="round"></path><path d="M 408.800,154.400 C 417.550,147.137 417.632,147.239 426.400,140.000" stroke-width="2.544" stroke="black" fill="none" stroke-linecap="round"></path><path d="M 426.400,140.000 C 432.290,133.963 429.950,137.137 433.600,134.400" stroke-width="3.235" stroke="black" fill="none" stroke-linecap="round"></path><path d="M 433.600,134.400 C 432.738,138.140 434.690,134.763 431.200,141.600" stroke-width="4.068" stroke="black" fill="none" stroke-linecap="round"></path><path d="M 431.200,141.600 C 427.517,148.760 427.938,148.940 424.000,156.000" stroke-width="3.092" stroke="black" fill="none" stroke-linecap="round"></path><path d="M 424.000,156.000 C 420.283,162.623 420.717,162.760 417.600,169.600" stroke-width="3.017" stroke="black" fill="none" stroke-linecap="round"></path><path d="M 417.600,169.600 C 414.583,174.978 416.283,173.023 416.000,176.800" stroke-width="3.599" stroke="black" fill="none" stroke-linecap="round"></path><path d="M 416.000,176.800 C 420.003,178.132 417.383,178.578 423.200,176.800" stroke-width="4.256" stroke="black" fill="none" stroke-linecap="round"></path><path d="M 423.200,176.800 C 429.100,172.640 429.603,174.132 435.200,168.800" stroke-width="3.328" stroke="black" fill="none" stroke-linecap="round"></path><path d="M 435.200,168.800 C 439.617,165.029 439.900,165.840 444.800,163.200" stroke-width="3.379" stroke="black" fill="none" stroke-linecap="round"></path><path d="M 444.800,163.200 C 454.155,162.672 453.217,160.229 462.400,159.200" stroke-width="4.150" stroke="black" fill="none" stroke-linecap="round"></path><path d="M 462.400,159.200 C 476.671,152.066 476.955,153.072 490.400,144.000" stroke-width="2.250" stroke="black" fill="none" stroke-linecap="round"></path><path d="M 490.400,144.000 C 508.318,132.665 508.671,133.266 526.400,121.600" stroke-width="1.702" stroke="black" fill="none" stroke-linecap="round"></path></svg>